<mxfile host="app.diagrams.net" modified="2021-07-04T04:56:27.973Z" agent="5.0 (Macintosh; Intel Mac OS X 10_15_7) AppleWebKit/537.36 (KHTML, like Gecko) Chrome/91.0.4472.114 Safari/537.36" etag="vX-eurz1Yt4EwFSXZIpR" version="14.8.4" type="github" pages="2">
  <diagram id="1p5W6vF0cWJFoUf46gm6" name="Page-1">
    <mxGraphModel dx="893" dy="589" grid="1" gridSize="10" guides="1" tooltips="1" connect="1" arrows="1" fold="1" page="1" pageScale="1" pageWidth="850" pageHeight="1100" math="0" shadow="0">
      <root>
        <mxCell id="0" />
        <mxCell id="1" parent="0" />
        <mxCell id="SgNwifBKHYJNlDfw5NTR-1" value="Hash dari transaksi terakhir" style="verticalAlign=top;align=left;spacingTop=8;spacingLeft=2;spacingRight=12;shape=cube;size=10;direction=south;fontStyle=4;html=1;" vertex="1" parent="1">
          <mxGeometry x="100" y="200" width="180" height="120" as="geometry" />
        </mxCell>
        <mxCell id="SgNwifBKHYJNlDfw5NTR-2" value="Blok transaksi" style="verticalAlign=top;align=left;spacingTop=8;spacingLeft=2;spacingRight=12;shape=cube;size=10;direction=south;fontStyle=4;html=1;" vertex="1" parent="1">
          <mxGeometry x="410" y="200" width="180" height="120" as="geometry" />
        </mxCell>
        <mxCell id="SgNwifBKHYJNlDfw5NTR-3" value="Nonce: 1234" style="whiteSpace=wrap;html=1;aspect=fixed;" vertex="1" parent="1">
          <mxGeometry x="680" y="200" width="120" height="120" as="geometry" />
        </mxCell>
        <mxCell id="SgNwifBKHYJNlDfw5NTR-4" value="Hash baru&lt;br&gt;&lt;br&gt;0000017669BB9D3A3372 . . ." style="verticalAlign=top;align=left;spacingTop=8;spacingLeft=2;spacingRight=12;shape=cube;size=10;direction=south;fontStyle=4;html=1;" vertex="1" parent="1">
          <mxGeometry x="400" y="441" width="180" height="120" as="geometry" />
        </mxCell>
        <mxCell id="SgNwifBKHYJNlDfw5NTR-5" value="" style="endArrow=classic;html=1;exitX=0;exitY=0;exitDx=115;exitDy=5;exitPerimeter=0;" edge="1" parent="1" source="SgNwifBKHYJNlDfw5NTR-1">
          <mxGeometry width="50" height="50" relative="1" as="geometry">
            <mxPoint x="280" y="310" as="sourcePoint" />
            <mxPoint x="470" y="430" as="targetPoint" />
          </mxGeometry>
        </mxCell>
        <mxCell id="SgNwifBKHYJNlDfw5NTR-6" value="" style="endArrow=classic;html=1;exitX=0;exitY=0;exitDx=120;exitDy=95;exitPerimeter=0;" edge="1" parent="1" source="SgNwifBKHYJNlDfw5NTR-2">
          <mxGeometry width="50" height="50" relative="1" as="geometry">
            <mxPoint x="285" y="325" as="sourcePoint" />
            <mxPoint x="495" y="430" as="targetPoint" />
          </mxGeometry>
        </mxCell>
        <mxCell id="SgNwifBKHYJNlDfw5NTR-7" value="" style="endArrow=classic;html=1;exitX=0.5;exitY=1;exitDx=0;exitDy=0;" edge="1" parent="1" source="SgNwifBKHYJNlDfw5NTR-3">
          <mxGeometry width="50" height="50" relative="1" as="geometry">
            <mxPoint x="505" y="330" as="sourcePoint" />
            <mxPoint x="520" y="430" as="targetPoint" />
          </mxGeometry>
        </mxCell>
      </root>
    </mxGraphModel>
  </diagram>
  <diagram id="kqM-a0FrOLBP2fPFDyc0" name="Page-2">
    <mxGraphModel dx="1371" dy="769" grid="1" gridSize="10" guides="1" tooltips="1" connect="1" arrows="1" fold="1" page="1" pageScale="1" pageWidth="850" pageHeight="1100" math="0" shadow="0">
      <root>
        <mxCell id="8XYLhrBgmV5lf-E_SUiz-0" />
        <mxCell id="8XYLhrBgmV5lf-E_SUiz-1" parent="8XYLhrBgmV5lf-E_SUiz-0" />
        <mxCell id="IgnwWgjOOjCO_KTmrYAG-0" value="" style="endArrow=classic;html=1;fontSize=16;exitX=0.25;exitY=1;exitDx=0;exitDy=0;" edge="1" parent="8XYLhrBgmV5lf-E_SUiz-1" source="6HIFpXVxRDMLLTa087al-5">
          <mxGeometry width="50" height="50" relative="1" as="geometry">
            <mxPoint x="290" y="460" as="sourcePoint" />
            <mxPoint x="120" y="430" as="targetPoint" />
          </mxGeometry>
        </mxCell>
        <mxCell id="IgnwWgjOOjCO_KTmrYAG-1" value="" style="group" vertex="1" connectable="0" parent="8XYLhrBgmV5lf-E_SUiz-1">
          <mxGeometry x="72" y="430" width="106" height="118" as="geometry" />
        </mxCell>
        <mxCell id="6HIFpXVxRDMLLTa087al-9" value="" style="shape=image;html=1;verticalAlign=top;verticalLabelPosition=bottom;labelBackgroundColor=#ffffff;imageAspect=0;aspect=fixed;image=https://cdn0.iconfinder.com/data/icons/world-issues/500/pickaxe-128.png;direction=south;" vertex="1" parent="IgnwWgjOOjCO_KTmrYAG-1">
          <mxGeometry x="28" width="78" height="78" as="geometry" />
        </mxCell>
        <mxCell id="6HIFpXVxRDMLLTa087al-11" value="" style="shape=image;html=1;verticalAlign=top;verticalLabelPosition=bottom;labelBackgroundColor=#ffffff;imageAspect=0;aspect=fixed;image=https://cdn4.iconfinder.com/data/icons/basic-ui-2-line/32/person-people-man-profile-human-128.png" vertex="1" parent="IgnwWgjOOjCO_KTmrYAG-1">
          <mxGeometry y="20" width="58" height="58" as="geometry" />
        </mxCell>
        <mxCell id="fHSrv6ZOTVzKOw0cZiCZ-0" value="x1" style="text;html=1;strokeColor=none;fillColor=none;align=center;verticalAlign=middle;whiteSpace=wrap;rounded=0;fontSize=16;" vertex="1" parent="IgnwWgjOOjCO_KTmrYAG-1">
          <mxGeometry x="28" y="78" width="40" height="40" as="geometry" />
        </mxCell>
        <mxCell id="IgnwWgjOOjCO_KTmrYAG-2" value="" style="group" vertex="1" connectable="0" parent="8XYLhrBgmV5lf-E_SUiz-1">
          <mxGeometry x="202" y="430" width="106" height="118" as="geometry" />
        </mxCell>
        <mxCell id="fHSrv6ZOTVzKOw0cZiCZ-1" value="" style="shape=image;html=1;verticalAlign=top;verticalLabelPosition=bottom;labelBackgroundColor=#ffffff;imageAspect=0;aspect=fixed;image=https://cdn0.iconfinder.com/data/icons/world-issues/500/pickaxe-128.png;direction=south;" vertex="1" parent="IgnwWgjOOjCO_KTmrYAG-2">
          <mxGeometry x="28" width="78" height="78" as="geometry" />
        </mxCell>
        <mxCell id="fHSrv6ZOTVzKOw0cZiCZ-2" value="" style="shape=image;html=1;verticalAlign=top;verticalLabelPosition=bottom;labelBackgroundColor=#ffffff;imageAspect=0;aspect=fixed;image=https://cdn4.iconfinder.com/data/icons/basic-ui-2-line/32/person-people-man-profile-human-128.png" vertex="1" parent="IgnwWgjOOjCO_KTmrYAG-2">
          <mxGeometry y="20" width="58" height="58" as="geometry" />
        </mxCell>
        <mxCell id="fHSrv6ZOTVzKOw0cZiCZ-3" value="x2" style="text;html=1;strokeColor=none;fillColor=none;align=center;verticalAlign=middle;whiteSpace=wrap;rounded=0;fontSize=16;" vertex="1" parent="IgnwWgjOOjCO_KTmrYAG-2">
          <mxGeometry x="28" y="78" width="40" height="40" as="geometry" />
        </mxCell>
        <mxCell id="IgnwWgjOOjCO_KTmrYAG-3" value="" style="group" vertex="1" connectable="0" parent="8XYLhrBgmV5lf-E_SUiz-1">
          <mxGeometry x="330" y="430" width="106" height="118" as="geometry" />
        </mxCell>
        <mxCell id="fHSrv6ZOTVzKOw0cZiCZ-4" value="" style="shape=image;html=1;verticalAlign=top;verticalLabelPosition=bottom;labelBackgroundColor=#ffffff;imageAspect=0;aspect=fixed;image=https://cdn0.iconfinder.com/data/icons/world-issues/500/pickaxe-128.png;direction=south;" vertex="1" parent="IgnwWgjOOjCO_KTmrYAG-3">
          <mxGeometry x="28" width="78" height="78" as="geometry" />
        </mxCell>
        <mxCell id="fHSrv6ZOTVzKOw0cZiCZ-5" value="" style="shape=image;html=1;verticalAlign=top;verticalLabelPosition=bottom;labelBackgroundColor=#ffffff;imageAspect=0;aspect=fixed;image=https://cdn4.iconfinder.com/data/icons/basic-ui-2-line/32/person-people-man-profile-human-128.png" vertex="1" parent="IgnwWgjOOjCO_KTmrYAG-3">
          <mxGeometry y="20" width="58" height="58" as="geometry" />
        </mxCell>
        <mxCell id="fHSrv6ZOTVzKOw0cZiCZ-6" value="x3" style="text;html=1;strokeColor=none;fillColor=none;align=center;verticalAlign=middle;whiteSpace=wrap;rounded=0;fontSize=16;" vertex="1" parent="IgnwWgjOOjCO_KTmrYAG-3">
          <mxGeometry x="28" y="78" width="40" height="40" as="geometry" />
        </mxCell>
        <mxCell id="IgnwWgjOOjCO_KTmrYAG-4" value="" style="group" vertex="1" connectable="0" parent="8XYLhrBgmV5lf-E_SUiz-1">
          <mxGeometry x="565" y="110" width="120" height="150" as="geometry" />
        </mxCell>
        <mxCell id="8XYLhrBgmV5lf-E_SUiz-3" value="" style="outlineConnect=0;fontColor=#232F3E;gradientColor=none;strokeColor=#ffffff;fillColor=#232F3E;dashed=0;verticalLabelPosition=middle;verticalAlign=bottom;align=center;html=1;whiteSpace=wrap;fontSize=10;fontStyle=1;spacing=3;shape=mxgraph.aws4.productIcon;prIcon=mxgraph.aws4.server_migration_service;" vertex="1" parent="IgnwWgjOOjCO_KTmrYAG-4">
          <mxGeometry x="5" width="110" height="80" as="geometry" />
        </mxCell>
        <mxCell id="6HIFpXVxRDMLLTa087al-0" value="Jaringan Blockchain" style="text;html=1;strokeColor=none;fillColor=none;align=center;verticalAlign=middle;whiteSpace=wrap;rounded=0;" vertex="1" parent="IgnwWgjOOjCO_KTmrYAG-4">
          <mxGeometry y="130" width="120" height="20" as="geometry" />
        </mxCell>
        <mxCell id="IgnwWgjOOjCO_KTmrYAG-5" value="" style="group" vertex="1" connectable="0" parent="8XYLhrBgmV5lf-E_SUiz-1">
          <mxGeometry x="180" y="102" width="180" height="228" as="geometry" />
        </mxCell>
        <mxCell id="6HIFpXVxRDMLLTa087al-2" value="" style="shape=image;html=1;verticalAlign=top;verticalLabelPosition=bottom;labelBackgroundColor=#ffffff;imageAspect=0;aspect=fixed;image=https://cdn4.iconfinder.com/data/icons/success-filloutline/64/jigsaws-puzzle_pieces-planning-creative-strategy-128.png" vertex="1" parent="IgnwWgjOOjCO_KTmrYAG-5">
          <mxGeometry width="128" height="128" as="geometry" />
        </mxCell>
        <mxCell id="6HIFpXVxRDMLLTa087al-5" value="Puzzle matematika&lt;br&gt;(Hash Sebelumnya + Blok Transaksi + Nonce)&lt;br&gt;&lt;br&gt;y=f(x)&lt;br&gt;x=?" style="text;html=1;strokeColor=none;fillColor=none;align=left;verticalAlign=middle;whiteSpace=wrap;rounded=0;" vertex="1" parent="IgnwWgjOOjCO_KTmrYAG-5">
          <mxGeometry x="20" y="138" width="160" height="90" as="geometry" />
        </mxCell>
        <mxCell id="IgnwWgjOOjCO_KTmrYAG-6" value="" style="endArrow=classic;html=1;fontSize=16;exitX=0.25;exitY=1;exitDx=0;exitDy=0;" edge="1" parent="8XYLhrBgmV5lf-E_SUiz-1" source="6HIFpXVxRDMLLTa087al-5">
          <mxGeometry width="50" height="50" relative="1" as="geometry">
            <mxPoint x="250" y="340" as="sourcePoint" />
            <mxPoint x="240" y="440" as="targetPoint" />
          </mxGeometry>
        </mxCell>
        <mxCell id="IgnwWgjOOjCO_KTmrYAG-7" value="" style="endArrow=classic;html=1;fontSize=16;exitX=0.25;exitY=1;exitDx=0;exitDy=0;entryX=0;entryY=1;entryDx=0;entryDy=0;" edge="1" parent="8XYLhrBgmV5lf-E_SUiz-1" source="6HIFpXVxRDMLLTa087al-5" target="fHSrv6ZOTVzKOw0cZiCZ-4">
          <mxGeometry width="50" height="50" relative="1" as="geometry">
            <mxPoint x="250" y="340" as="sourcePoint" />
            <mxPoint x="250" y="430" as="targetPoint" />
          </mxGeometry>
        </mxCell>
        <mxCell id="IgnwWgjOOjCO_KTmrYAG-8" value="y=f(x1) =&amp;gt; Salah&lt;br&gt;&lt;font color=&quot;#00cc66&quot;&gt;y=f(x2) =&amp;gt; Benar&lt;br&gt;&lt;/font&gt;y=f(x3) =&amp;gt; Salah" style="rounded=0;whiteSpace=wrap;html=1;fontSize=16;align=left;fillColor=#f5f5f5;strokeColor=#666666;fontColor=#333333;" vertex="1" parent="8XYLhrBgmV5lf-E_SUiz-1">
          <mxGeometry x="810" y="440" width="170" height="90" as="geometry" />
        </mxCell>
        <mxCell id="IgnwWgjOOjCO_KTmrYAG-10" value="&lt;font style=&quot;font-size: 12px&quot;&gt;Mengirim Puzzle&lt;/font&gt;" style="endArrow=classic;html=1;fontSize=16;" edge="1" parent="8XYLhrBgmV5lf-E_SUiz-1">
          <mxGeometry width="50" height="50" relative="1" as="geometry">
            <mxPoint x="540" y="160" as="sourcePoint" />
            <mxPoint x="350" y="160" as="targetPoint" />
          </mxGeometry>
        </mxCell>
        <mxCell id="IgnwWgjOOjCO_KTmrYAG-11" value="&lt;font style=&quot;font-size: 12px&quot;&gt;Mengirim Puzzle&lt;/font&gt;" style="endArrow=classic;html=1;fontSize=16;edgeStyle=orthogonalEdgeStyle;" edge="1" parent="8XYLhrBgmV5lf-E_SUiz-1">
          <mxGeometry x="0.6222" width="50" height="50" relative="1" as="geometry">
            <mxPoint x="110" y="550" as="sourcePoint" />
            <mxPoint x="600" y="280" as="targetPoint" />
            <Array as="points">
              <mxPoint x="110" y="620" />
              <mxPoint x="600" y="620" />
            </Array>
            <mxPoint as="offset" />
          </mxGeometry>
        </mxCell>
        <mxCell id="IgnwWgjOOjCO_KTmrYAG-12" value="" style="endArrow=none;html=1;fontSize=16;" edge="1" parent="8XYLhrBgmV5lf-E_SUiz-1">
          <mxGeometry width="50" height="50" relative="1" as="geometry">
            <mxPoint x="240" y="620" as="sourcePoint" />
            <mxPoint x="240" y="560" as="targetPoint" />
          </mxGeometry>
        </mxCell>
        <mxCell id="IgnwWgjOOjCO_KTmrYAG-13" value="" style="endArrow=none;html=1;fontSize=16;" edge="1" parent="8XYLhrBgmV5lf-E_SUiz-1">
          <mxGeometry width="50" height="50" relative="1" as="geometry">
            <mxPoint x="360" y="620" as="sourcePoint" />
            <mxPoint x="360" y="560" as="targetPoint" />
          </mxGeometry>
        </mxCell>
        <mxCell id="IgnwWgjOOjCO_KTmrYAG-14" value="&lt;font style=&quot;font-size: 12px&quot;&gt;Memvalidasi&lt;/font&gt;" style="endArrow=classic;html=1;fontSize=16;" edge="1" parent="8XYLhrBgmV5lf-E_SUiz-1">
          <mxGeometry x="0.4286" width="50" height="50" relative="1" as="geometry">
            <mxPoint x="700" y="160" as="sourcePoint" />
            <mxPoint x="880" y="430" as="targetPoint" />
            <Array as="points">
              <mxPoint x="880" y="160" />
            </Array>
            <mxPoint as="offset" />
          </mxGeometry>
        </mxCell>
        <mxCell id="IgnwWgjOOjCO_KTmrYAG-15" value="&lt;font style=&quot;font-size: 12px&quot;&gt;Mengirim hadiah&lt;/font&gt;" style="endArrow=classic;html=1;fontSize=16;" edge="1" parent="8XYLhrBgmV5lf-E_SUiz-1">
          <mxGeometry width="50" height="50" relative="1" as="geometry">
            <mxPoint x="880" y="550" as="sourcePoint" />
            <mxPoint x="240" y="630" as="targetPoint" />
            <Array as="points">
              <mxPoint x="880" y="720" />
              <mxPoint x="240" y="720" />
            </Array>
          </mxGeometry>
        </mxCell>
        <mxCell id="IgnwWgjOOjCO_KTmrYAG-16" value="" style="shape=image;html=1;verticalAlign=top;verticalLabelPosition=bottom;labelBackgroundColor=#ffffff;imageAspect=0;aspect=fixed;image=https://cdn0.iconfinder.com/data/icons/blockchain-classic/258/Bitcoin-128.png;fontSize=16;" vertex="1" parent="8XYLhrBgmV5lf-E_SUiz-1">
          <mxGeometry x="560" y="740" width="28" height="28" as="geometry" />
        </mxCell>
        <mxCell id="IgnwWgjOOjCO_KTmrYAG-17" value="" style="shape=image;html=1;verticalAlign=top;verticalLabelPosition=bottom;labelBackgroundColor=#ffffff;imageAspect=0;aspect=fixed;image=https://cdn4.iconfinder.com/data/icons/cryptocoins/227/ETH-128.png;fontSize=16;" vertex="1" parent="8XYLhrBgmV5lf-E_SUiz-1">
          <mxGeometry x="600" y="740" width="30" height="30" as="geometry" />
        </mxCell>
      </root>
    </mxGraphModel>
  </diagram>
</mxfile>
